# xmcd CD database file
#
# Track frame offsets:
#	150
#	17597
#	31680
#	49325
#
# Disc length: 708 seconds
#
# Revision: 1
# Processed by: cddbd v1.5.1PL2 Copyright (c) Steve Scherf et al.
# Submitted via: CDex 1.60beta1-cs1
#
DISCID=2502c204
DTITLE=内田有紀 - TENCAを取ろう！-内田の野望-
DYEAR=1994
DGENRE=JPop
TTITLE0=TENCAを取ろう！-内田の野望-
TTITLE1=ヘイ・ポーラ (HEY PAULA)
TTITLE2=TENCAを取ろう！-内田の野望- (オリジナル・カラオケ)
TTITLE3=(Secret Track)
EXTD=YEAR: 1994
EXTT0=
EXTT1=
EXTT2=
EXTT3=
PLAYORDER=
